<svg xmlns="http://www.w3.org/2000/svg" width="60.35" height="60.352" viewBox="0 0 60.35 60.352">
  <g id="_3088383_astronomy_launch_rocket_shuttle_space_icon" data-name="3088383_astronomy_launch_rocket_shuttle_space_icon" transform="translate(-5.584 -5.611)">
    <path id="Path_107" data-name="Path 107" d="M53.422,103.209a.517.517,0,0,0-.729,0l-8.975,8.969a.517.517,0,1,0,.734.729l8.969-8.969A.517.517,0,0,0,53.422,103.209Z" transform="translate(-18.359 -47.1)" fill="#278ef1"/>
    <path id="Path_108" data-name="Path 108" d="M58.2,111.873a.517.517,0,0,0,.362-.15l3.761-3.761a.517.517,0,0,0-.729-.729l-3.736,3.756a.517.517,0,0,0,.367.884Z" transform="translate(-25.191 -49.058)" fill="#278ef1"/>
    <path id="Path_109" data-name="Path 109" d="M53.679,117.247,52.227,118.7a.515.515,0,1,0,.729.729l1.457-1.452a.517.517,0,1,0-.734-.729Z" transform="translate(-22.47 -53.884)" fill="#278ef1"/>
    <path id="Path_110" data-name="Path 110" d="M5.737,74.894a.518.518,0,0,0,.729,0l8.969-8.975a.517.517,0,1,0-.729-.729L5.737,74.16a.517.517,0,0,0,0,.734Z" transform="translate(0 -28.71)" fill="#278ef1"/>
    <path id="Path_111" data-name="Path 111" d="M12.575,65.681l3.756-3.761a.517.517,0,1,0-.729-.729l-3.741,3.761a.51.51,0,1,0,.713.729Z" transform="translate(-2.963 -26.777)" fill="#278ef1"/>
    <path id="Path_112" data-name="Path 112" d="M6.973,73.445l1.452-1.452a.517.517,0,0,0-.729-.734L6.239,72.716a.517.517,0,0,0,.734.729Z" transform="translate(-0.244 -31.658)" fill="#278ef1"/>
    <path id="Path_113" data-name="Path 113" d="M44.686,20.067,23.565,23.4a.517.517,0,0,0-.284.145l-3.364,3.364a.517.517,0,0,0,0,.734l8.6,8.6-2.434,2.439a.517.517,0,0,0,0,.734l5.921,5.921-2.346,2.351a.515.515,0,0,0,.729.729l2.346-2.346L39,52.312a.517.517,0,0,0,.734,0l2.439-2.439,8.6,8.6a.517.517,0,0,0,.734,0l3.1-3.1h0l.279-.279a.517.517,0,0,0,.145-.284l3.3-21.1L68.815,23.223a11.754,11.754,0,0,0,3.059-5.342.315.315,0,0,0,0-.067,11.367,11.367,0,0,0,.32-1.772l.574-5.823a4.2,4.2,0,0,0-4.588-4.588l-5.807.558A11.749,11.749,0,0,0,60.61,6.5h-.078A11.754,11.754,0,0,0,55.19,9.583ZM32.338,32.436l-8.1-8.091,19.22-3.033ZM21.012,27.269l2.351-2.341,8.267,8.236L29.253,35.52ZM51.119,57.375l-8.267-8.241L45.2,46.784l8.267,8.267Zm2.935-3.234L45.962,46.06,57.086,34.936ZM62.475,7.207l5.818-.574a3.172,3.172,0,0,1,3.462,3.462l-.574,5.818a4.624,4.624,0,0,1-.1.7l-9.3-9.3c.227-.031.47-.072.692-.093Zm-1.891.362L70.819,17.8a10.809,10.809,0,0,1-2.733,4.65L39.344,51.217l-5.875-5.875L48.334,30.478a.517.517,0,1,0-.734-.729L32.736,44.614l-5.554-5.559L32.7,33.531h0L55.919,10.312a10.85,10.85,0,0,1,4.666-2.733Z" transform="translate(-6.854)" fill="#278ef1"/>
    <path id="Path_114" data-name="Path 114" d="M9.3,105.544a1.69,1.69,0,0,0,.734-.165l10.085-4.7a5.782,5.782,0,1,0-7.667-7.667l-4.7,10.085a1.721,1.721,0,0,0,1.55,2.449Zm-.615-2.01h0L13.37,93.443a4.712,4.712,0,0,1,3.482-2.676,5.275,5.275,0,0,1,.853-.072,4.754,4.754,0,0,1,1.979,9.062L9.593,104.443a.682.682,0,0,1-.909-.909Z" transform="translate(-0.968 -40.615)" fill="#278ef1"/>
    <path id="Path_115" data-name="Path 115" d="M91.126,32.158a5.4,5.4,0,1,0-3.818-1.581,5.4,5.4,0,0,0,3.818,1.581Zm-3.1-8.489a1.822,1.822,0,1,0,.016,0Z" transform="translate(-38.733 -7.607)" fill="#278ef1"/>
  </g>
</svg>
