<svg xmlns="http://www.w3.org/2000/svg" width="60.565" height="65" viewBox="0 0 60.565 65">
  <g id="_5746990_art_compass_divider_drawing_equipment_icon" data-name="5746990_art_compass_divider_drawing_equipment_icon" transform="translate(-106.664 -95.728)">
    <path id="Path_99" data-name="Path 99" d="M241.016,181.821a4.144,4.144,0,1,0,4.144,4.144A4.149,4.149,0,0,0,241.016,181.821Zm0,5.993a1.849,1.849,0,1,1,1.849-1.849A1.851,1.851,0,0,1,241.016,187.814Z" transform="translate(-104.069 -68.797)" fill="#278ef1"/>
    <path id="Path_100" data-name="Path 100" d="M189.267,149.333l2.056-.833a1.058,1.058,0,0,0,.574-.571,1.1,1.1,0,0,0,.014-.822l-9.906-25.978a10.6,10.6,0,0,0,.8-4.064,10.4,10.4,0,0,0-6.179-9.574V96.8a1.059,1.059,0,0,0-1.042-1.074H169.9a1.059,1.059,0,0,0-1.042,1.074v10.689a10.4,10.4,0,0,0-6.179,9.574,10.6,10.6,0,0,0,.805,4.064l-9.906,25.978a1.1,1.1,0,0,0,.014.822,1.058,1.058,0,0,0,.574.571l2.056.833-3.785,9.927a1.085,1.085,0,0,0,.589,1.393,1.008,1.008,0,0,0,.38.075,1.043,1.043,0,0,0,.97-.682l1.472-3.861A30.882,30.882,0,0,0,166.62,160.6a1.011,1.011,0,0,0,.2.02,1.051,1.051,0,0,0,1.022-.868,1.073,1.073,0,0,0-.823-1.261,28.869,28.869,0,0,1-10.4-4.344l1.537-4.032,2.057.834a1.007,1.007,0,0,0,.38.075,1.043,1.043,0,0,0,.97-.682l8.844-23.193a9.441,9.441,0,0,0,4.668,0l8.843,23.192a1.043,1.043,0,0,0,.97.682,1.007,1.007,0,0,0,.381-.075l2.057-.834,1.538,4.033a28.881,28.881,0,0,1-10.4,4.345,1.073,1.073,0,0,0-.823,1.26,1.051,1.051,0,0,0,1.021.869,1,1,0,0,0,.2-.02,30.885,30.885,0,0,0,10.781-4.42l1.472,3.861a1.043,1.043,0,0,0,.97.682,1.008,1.008,0,0,0,.38-.075,1.085,1.085,0,0,0,.589-1.393ZM170.938,97.876h3.611v8.984a9.329,9.329,0,0,0-3.611,0Zm-10.93,50.683-4.112-1.667,8.935-23.431a10.177,10.177,0,0,0,3.613,2.976ZM172.744,125.3a8.236,8.236,0,1,1,7.984-8.233A8.12,8.12,0,0,1,172.744,125.3Zm12.736,23.262-8.435-22.122a10.176,10.176,0,0,0,3.613-2.976l8.934,23.431Z" transform="translate(-35.797)" fill="#278ef1"/>
    <path id="Path_101" data-name="Path 101" d="M108.871,313.034a1.148,1.148,0,1,0-2.116.889,34.959,34.959,0,0,0,3.408,6.241,1.148,1.148,0,1,0,1.892-1.3A32.707,32.707,0,0,1,108.871,313.034Z" transform="translate(0 -173.089)" fill="#278ef1"/>
    <path id="Path_102" data-name="Path 102" d="M384.413,312.418a1.146,1.146,0,0,0-1.5.614,32.7,32.7,0,0,1-3.184,5.831,1.148,1.148,0,1,0,1.892,1.3,34.957,34.957,0,0,0,3.408-6.241A1.148,1.148,0,0,0,384.413,312.418Z" transform="translate(-217.887 -173.088)" fill="#278ef1"/>
  </g>
</svg>
