<svg xmlns="http://www.w3.org/2000/svg" width="54.138" height="54.13" viewBox="0 0 54.138 54.13">
  <g id="Expanded" transform="translate(-1.994 -2)">
    <g id="Group_78" data-name="Group 78" transform="translate(1.994 2)">
      <g id="Group_72" data-name="Group 72" transform="translate(0 0.009)">
        <path id="Path_116" data-name="Path 116" d="M13.077,56.128h0a11.034,11.034,0,0,1-4.327-.876,1.229,1.229,0,0,1-.391-2L12.708,48.9v-3.48H9.229L4.88,49.77a1.229,1.229,0,0,1-2-.391A11.07,11.07,0,0,1,16.6,34.57L34.564,16.6A11.071,11.071,0,0,1,49.374,2.883a1.229,1.229,0,0,1,.391,2l-4.349,4.35v3.48H48.9l4.348-4.349a1.229,1.229,0,0,1,2,.391A11.069,11.069,0,0,1,41.525,23.565L23.56,41.53a11.063,11.063,0,0,1-10.483,14.6Zm-1.522-2.593a8.684,8.684,0,0,0,1.522.133A8.6,8.6,0,0,0,20.995,41.7a1.23,1.23,0,0,1,.263-1.35L40.346,21.264A1.229,1.229,0,0,1,41.7,21a8.608,8.608,0,0,0,11.835-9.443l-3.256,3.256a1.229,1.229,0,0,1-.87.36H44.186a1.23,1.23,0,0,1-1.23-1.23V8.725a1.225,1.225,0,0,1,.36-.87L46.571,4.6a8.709,8.709,0,0,0-1.523-.133A8.6,8.6,0,0,0,37.13,16.435a1.23,1.23,0,0,1-.263,1.35L17.778,36.873a1.23,1.23,0,0,1-1.35.263A8.608,8.608,0,0,0,4.594,46.579L7.85,43.323a1.229,1.229,0,0,1,.87-.36h5.22a1.23,1.23,0,0,1,1.23,1.23v5.22a1.225,1.225,0,0,1-.36.87Z" transform="translate(-1.994 -2.007)" fill="#cb5edc"/>
      </g>
      <g id="Group_73" data-name="Group 73" transform="translate(34.068 34.06)">
        <path id="Path_117" data-name="Path 117" d="M44.835,49.756a4.89,4.89,0,0,1-3.48-1.442L30.047,37a1.229,1.229,0,0,1,0-1.74l5.219-5.219a1.229,1.229,0,0,1,1.74,0L48.314,41.356a4.92,4.92,0,0,1-3.479,8.4ZM32.657,36.135,43.1,46.575a2.519,2.519,0,0,0,3.479,0,2.461,2.461,0,0,0,0-3.479l-10.44-10.44Z" transform="translate(-29.686 -29.686)" fill="#cb5edc"/>
      </g>
      <g id="Group_74" data-name="Group 74" transform="translate(9.067 9.059)">
        <rect id="Rectangle_84" data-name="Rectangle 84" width="19.852" height="2.46" transform="translate(1.74 0) rotate(45)" fill="#cb5edc"/>
      </g>
      <g id="Group_75" data-name="Group 75" transform="translate(31.457 31.451)">
        <path id="Path_118" data-name="Path 118" d="M28.794,40.464a1.23,1.23,0,0,1-.87-2.1L38.363,27.926a1.23,1.23,0,1,1,1.74,1.74L29.664,40.1A1.227,1.227,0,0,1,28.794,40.464Z" transform="translate(-27.564 -27.565)" fill="#cb5edc"/>
      </g>
      <g id="Group_76" data-name="Group 76" transform="translate(0.008)">
        <path id="Path_119" data-name="Path 119" d="M10.19,14.9a1.227,1.227,0,0,1-.87-.36L2.36,7.579a1.23,1.23,0,0,1,0-1.74L5.84,2.361a1.229,1.229,0,0,1,1.74,0L14.538,9.32a1.23,1.23,0,0,1,0,1.74l-3.479,3.479A1.222,1.222,0,0,1,10.19,14.9ZM4.97,6.709l5.22,5.22,1.74-1.74L6.709,4.97Z" transform="translate(-2 -2)" fill="#cb5edc"/>
      </g>
      <g id="Group_77" data-name="Group 77" transform="translate(28.326 28.316)">
        <rect id="Rectangle_85" data-name="Rectangle 85" width="12.771" height="2.46" transform="translate(1.74) rotate(45)" fill="#cb5edc"/>
      </g>
    </g>
  </g>
</svg>
