<svg xmlns="http://www.w3.org/2000/svg" xmlns:xlink="http://www.w3.org/1999/xlink" width="142.583" height="39.801" viewBox="0 0 142.583 39.801">
  <defs>
    <linearGradient id="linear-gradient" x1="3.846" y1="2.574" x2="-7.747" y2="14.166" gradientUnits="objectBoundingBox">
      <stop offset="0" stop-color="#47f3d0"/>
      <stop offset="0.516" stop-color="#278ef1"/>
      <stop offset="1" stop-color="#cb5edc"/>
    </linearGradient>
    <linearGradient id="linear-gradient-2" x1="9.122" y1="2.574" x2="-2.471" y2="14.166" xlink:href="#linear-gradient"/>
    <linearGradient id="linear-gradient-3" x1="3.846" y1="-13.551" x2="-7.747" y2="-1.958" xlink:href="#linear-gradient"/>
    <linearGradient id="linear-gradient-4" x1="9.122" y1="-13.551" x2="-2.471" y2="-1.958" xlink:href="#linear-gradient"/>
    <linearGradient id="linear-gradient-5" x1="-1.578" y1="-8.127" x2="-13.171" y2="3.466" xlink:href="#linear-gradient"/>
    <linearGradient id="linear-gradient-6" x1="-1.578" y1="-2.85" x2="-13.171" y2="8.742" xlink:href="#linear-gradient"/>
    <linearGradient id="linear-gradient-7" x1="14.546" y1="-8.127" x2="2.953" y2="3.466" xlink:href="#linear-gradient"/>
    <linearGradient id="linear-gradient-8" x1="14.546" y1="-2.85" x2="2.953" y2="8.742" xlink:href="#linear-gradient"/>
    <linearGradient id="linear-gradient-9" x1="0.99" y1="0.012" x2="0.042" y2="0.956" xlink:href="#linear-gradient"/>
    <linearGradient id="linear-gradient-10" x1="0.653" y1="-2.494" x2="-5.143" y2="3.302" xlink:href="#linear-gradient"/>
    <linearGradient id="linear-gradient-11" x1="6.331" y1="-2.494" x2="0.534" y2="3.302" xlink:href="#linear-gradient"/>
    <linearGradient id="linear-gradient-12" x1="3.492" y1="-5.333" x2="-2.304" y2="0.463" xlink:href="#linear-gradient"/>
    <linearGradient id="linear-gradient-13" x1="3.492" y1="0.344" x2="-2.304" y2="6.141" xlink:href="#linear-gradient"/>
  </defs>
  <g id="Logo" transform="translate(-311.12 -20.1)">
    <g id="Group_57" data-name="Group 57" transform="translate(142.039 -148.981)">
      <g id="Group_56" data-name="Group 56" transform="translate(169.081 169.081)">
        <g id="Group_51" data-name="Group 51" transform="translate(12.606 0)">
          <rect id="Rectangle_61" data-name="Rectangle 61" width="2.324" height="2.324" rx="1.162" transform="translate(12.264)" fill="url(#linear-gradient)"/>
          <rect id="Rectangle_62" data-name="Rectangle 62" width="2.324" height="2.324" rx="1.162" fill="url(#linear-gradient-2)"/>
        </g>
        <g id="Group_52" data-name="Group 52" transform="translate(12.606 37.477)">
          <rect id="Rectangle_63" data-name="Rectangle 63" width="2.324" height="2.324" rx="1.162" transform="translate(12.264)" fill="url(#linear-gradient-3)"/>
          <rect id="Rectangle_64" data-name="Rectangle 64" width="2.324" height="2.324" rx="1.162" fill="url(#linear-gradient-4)"/>
        </g>
        <g id="Group_53" data-name="Group 53" transform="translate(37.477 12.606)">
          <rect id="Rectangle_65" data-name="Rectangle 65" width="2.324" height="2.324" rx="1.162" transform="translate(0 12.264)" fill="url(#linear-gradient-5)"/>
          <rect id="Rectangle_66" data-name="Rectangle 66" width="2.324" height="2.324" rx="1.162" fill="url(#linear-gradient-6)"/>
        </g>
        <g id="Group_54" data-name="Group 54" transform="translate(0 12.606)">
          <rect id="Rectangle_67" data-name="Rectangle 67" width="2.324" height="2.324" rx="1.162" transform="translate(0 12.264)" fill="url(#linear-gradient-7)"/>
          <rect id="Rectangle_68" data-name="Rectangle 68" width="2.324" height="2.324" rx="1.162" fill="url(#linear-gradient-8)"/>
        </g>
        <g id="Group_55" data-name="Group 55" transform="translate(4.381 4.381)">
          <path id="Path_78" data-name="Path 78" d="M258.306,251.73h-2.915a1.1,1.1,0,0,1-1.1-1.1v-3.825a1.1,1.1,0,0,1,1.1-1.1h2.915a1.1,1.1,0,0,0,1.1-1.1V240.2a1.1,1.1,0,0,1,1.1-1.1h1.78a1.1,1.1,0,0,0,1.1-1.1v-2.454a1.1,1.1,0,0,0-1.1-1.1h-2.454a1.1,1.1,0,0,0-1.1,1.1v1.887a1.1,1.1,0,0,1-1.1,1.1h-4.307a1.1,1.1,0,0,0-1.1,1.1V242.5a1.1,1.1,0,0,1-1.1,1.1h-3.911a1.1,1.1,0,0,1-1.1-1.1v-2.872a1.1,1.1,0,0,0-1.1-1.1H240.7a1.1,1.1,0,0,1-1.1-1.1v-1.887a1.1,1.1,0,0,0-1.1-1.1h-2.454a1.1,1.1,0,0,0-1.1,1.1v2.454a1.1,1.1,0,0,0,1.1,1.1h1.8a1.1,1.1,0,0,1,1.1,1.1v4.414a1.1,1.1,0,0,0,1.1,1.1h2.915a1.1,1.1,0,0,1,1.1,1.1v3.825a1.1,1.1,0,0,1-1.1,1.1h-2.915a1.1,1.1,0,0,0-1.1,1.1v4.414a1.1,1.1,0,0,1-1.1,1.1h-1.8a1.1,1.1,0,0,0-1.1,1.1v2.454a1.1,1.1,0,0,0,1.1,1.1H238.5a1.1,1.1,0,0,0,1.1-1.1V260a1.1,1.1,0,0,1,1.1-1.1h4.329a1.1,1.1,0,0,0,1.1-1.1v-2.872a1.1,1.1,0,0,1,1.1-1.1h3.911a1.1,1.1,0,0,1,1.1,1.1v2.872a1.1,1.1,0,0,0,1.1,1.1h4.307a1.1,1.1,0,0,1,1.1,1.1v1.887a1.1,1.1,0,0,0,1.1,1.1h2.454a1.1,1.1,0,0,0,1.1-1.1v-2.454a1.1,1.1,0,0,0-1.1-1.1H260.5a1.1,1.1,0,0,1-1.1-1.1v-4.414A1.1,1.1,0,0,0,258.306,251.73Z" transform="translate(-233.655 -233.201)" fill="url(#linear-gradient-9)"/>
          <rect id="Rectangle_69" data-name="Rectangle 69" width="4.648" height="4.648" rx="2.324" transform="translate(26.391 13.196)" fill="url(#linear-gradient-10)"/>
          <rect id="Rectangle_70" data-name="Rectangle 70" width="4.648" height="4.648" rx="2.324" transform="translate(0 13.196)" fill="url(#linear-gradient-11)"/>
          <rect id="Rectangle_71" data-name="Rectangle 71" width="4.648" height="4.648" rx="2.324" transform="translate(13.196 26.391)" fill="url(#linear-gradient-12)"/>
          <rect id="Rectangle_72" data-name="Rectangle 72" width="4.648" height="4.648" rx="2.324" transform="translate(13.196)" fill="url(#linear-gradient-13)"/>
        </g>
      </g>
    </g>
    <g id="Group_35" data-name="Group 35" transform="translate(31.369 -989.198)">
      <g id="Group_33" data-name="Group 33" transform="translate(329.709 1014.309)">
        <g id="Group_32" data-name="Group 32" transform="translate(0)">
          <path id="Path_52" data-name="Path 52" d="M334.476,1017.15a2.212,2.212,0,0,1-.7,1.7,2.512,2.512,0,0,1-3.379,0,2.238,2.238,0,0,1-.686-1.7,2.292,2.292,0,0,1,.686-1.714,2.467,2.467,0,0,1,3.379,0A2.265,2.265,0,0,1,334.476,1017.15Zm-.032,20.864a1.957,1.957,0,0,1-.588.1q-.458.032-.98.033a5.522,5.522,0,0,1-1.175-.114,2.082,2.082,0,0,1-.9-.425,2.055,2.055,0,0,1-.588-.833,3.582,3.582,0,0,1-.212-1.339v-13.06a1.476,1.476,0,0,1,.49-.082q.49-.049,1.012-.049a5.664,5.664,0,0,1,1.045.1,2.591,2.591,0,0,1,.947.375,2.027,2.027,0,0,1,.686.784,2.89,2.89,0,0,1,.261,1.322Z" transform="translate(-329.709 -1014.669)" fill="#444c4c"/>
          <path id="Path_53" data-name="Path 53" d="M373.378,1064.123h-4.441v-15.443q.162-.032.389-.066c.13-.021.28-.038.454-.049s.378-.016.616-.016a4.027,4.027,0,0,1,1.8.376,1.774,1.774,0,0,1,.956,1.322,5.223,5.223,0,0,1,1.72-1.388,6.453,6.453,0,0,1,3.1-.636,5.365,5.365,0,0,1,3.439.914,4.174,4.174,0,0,1,1.441,2.416,10.374,10.374,0,0,1,.213,1.633q.049.882.05,1.73v9.208h-4.441v-9.011q0-.718-.05-1.339a2.958,2.958,0,0,0-.263-1.061,1.5,1.5,0,0,0-.69-.686,2.956,2.956,0,0,0-1.33-.245,4.083,4.083,0,0,0-2.087.506,1.463,1.463,0,0,0-.87,1.257Z" transform="translate(-360.553 -1040.974)" fill="#444c4c"/>
          <path id="Path_54" data-name="Path 54" d="M460.5,1037.458a1.108,1.108,0,0,1-.882-.375,1.414,1.414,0,0,1-.326-.964,5.219,5.219,0,0,1-1.551,1.143,5.868,5.868,0,0,1-2.792.588,7.05,7.05,0,0,1-2.335-.392,5.092,5.092,0,0,1-2.008-1.306,6.485,6.485,0,0,1-1.4-2.432,11.711,11.711,0,0,1-.522-3.771,12.143,12.143,0,0,1,.539-3.853,7.307,7.307,0,0,1,1.437-2.6,5.61,5.61,0,0,1,2.057-1.469,6.374,6.374,0,0,1,2.433-.473,5.1,5.1,0,0,1,2.416.506,5.462,5.462,0,0,1,1.4,1v-8.62a1.479,1.479,0,0,1,.49-.081q.49-.049,1.012-.049a5.926,5.926,0,0,1,1.061.1,2.3,2.3,0,0,1,.947.392,2.224,2.224,0,0,1,.669.8,2.894,2.894,0,0,1,.261,1.322v20.537Zm-7.248-7.738a12.03,12.03,0,0,0,.163,2.073,4.6,4.6,0,0,0,.555,1.584,2.74,2.74,0,0,0,1.045,1.012,3.425,3.425,0,0,0,1.665.359,3.147,3.147,0,0,0,1.616-.392,1.225,1.225,0,0,0,.669-1.11V1025.9a4.406,4.406,0,0,0-.9-.62,2.975,2.975,0,0,0-1.486-.359,2.8,2.8,0,0,0-2.514,1.241A6.471,6.471,0,0,0,453.249,1029.72Z" transform="translate(-423.25 -1014.309)" fill="#444c4c"/>
          <path id="Path_55" data-name="Path 55" d="M538.088,1017.15a2.213,2.213,0,0,1-.7,1.7,2.513,2.513,0,0,1-3.379,0,2.238,2.238,0,0,1-.686-1.7,2.293,2.293,0,0,1,.686-1.714,2.468,2.468,0,0,1,3.379,0A2.266,2.266,0,0,1,538.088,1017.15Zm-.033,20.864a1.953,1.953,0,0,1-.588.1q-.457.032-.979.033a5.525,5.525,0,0,1-1.175-.114,2.08,2.08,0,0,1-.9-.425,2.053,2.053,0,0,1-.588-.833,3.587,3.587,0,0,1-.212-1.339v-13.06a1.475,1.475,0,0,1,.49-.082q.49-.049,1.012-.049a5.66,5.66,0,0,1,1.045.1,2.588,2.588,0,0,1,.947.375,2.026,2.026,0,0,1,.686.784,2.891,2.891,0,0,1,.261,1.322Z" transform="translate(-489.802 -1014.669)" fill="#444c4c"/>
          <path id="Path_56" data-name="Path 56" d="M581.972,1049.847q.032,0,.522-.049t.947-.049a4.633,4.633,0,0,1,1.094.131,2.691,2.691,0,0,1,.947.424,2.215,2.215,0,0,1,.669.8,2.8,2.8,0,0,1,.261,1.29v12.93h-2.971q-.817,0-1.029-.441a3.071,3.071,0,0,1-.212-1.29,5.2,5.2,0,0,1-1.714,1.388,6.408,6.408,0,0,1-3.085.637,5.332,5.332,0,0,1-3.428-.914,4.175,4.175,0,0,1-1.437-2.416,10.339,10.339,0,0,1-.212-1.632q-.049-.881-.049-1.73v-9.077a3.93,3.93,0,0,0,.49-.033c.152-.021.31-.038.473-.049s.321-.016.473-.016a3.866,3.866,0,0,1,2.155.555,2.2,2.2,0,0,1,.849,1.992v6.432q0,.719.049,1.339a2.972,2.972,0,0,0,.261,1.061,1.492,1.492,0,0,0,.686.686,2.92,2.92,0,0,0,1.323.245,4.035,4.035,0,0,0,2.073-.506,1.463,1.463,0,0,0,.865-1.257Z" transform="translate(-520.43 -1042.174)" fill="#444c4c"/>
          <path id="Path_57" data-name="Path 57" d="M659.969,1064.123h-4.44v-15.443q.162-.032.389-.066.195-.032.454-.049c.172-.011.378-.016.616-.016a4.028,4.028,0,0,1,1.8.376,1.773,1.773,0,0,1,.956,1.322,5.225,5.225,0,0,1,1.72-1.388,6.459,6.459,0,0,1,3.1-.636,4.671,4.671,0,0,1,2.736.653,4.106,4.106,0,0,1,1.327,1.535,6.1,6.1,0,0,1,4.963-2.188,6.77,6.77,0,0,1,2.008.261,4.273,4.273,0,0,1,1.4.719,3.275,3.275,0,0,1,.882,1.061,4.07,4.07,0,0,1,.408,1.29,14.167,14.167,0,0,1,.18,1.633q.049.882.049,1.73v9.208h-4.44v-9.011q0-.718-.033-1.306a2.571,2.571,0,0,0-.245-1.012,1.461,1.461,0,0,0-.653-.653,2.7,2.7,0,0,0-1.225-.229,3.5,3.5,0,0,0-1.616.392,2.667,2.667,0,0,0-1.061.849,18.677,18.677,0,0,1,.1,1.926v9.044H664.9v-9.011q0-.718-.033-1.339a2.572,2.572,0,0,0-.263-1.061,1.608,1.608,0,0,0-.69-.686,2.852,2.852,0,0,0-1.315-.245,3.277,3.277,0,0,0-1.89.506,1.489,1.489,0,0,0-.739,1.257Z" transform="translate(-585.89 -1040.974)" fill="#444c4c"/>
        </g>
      </g>
      <g id="Group_34" data-name="Group 34" transform="translate(330.003 1039.192)">
        <path id="Path_58" data-name="Path 58" d="M335.386,1132.068v3.622h-.744v-2.469l-1.154,2.469h-.507l-1.159-2.469v2.469h-.739v-3.622h.884l1.272,2.679,1.262-2.679Z" transform="translate(-331.084 -1131.782)" fill="#97a0a9"/>
        <path id="Path_59" data-name="Path 59" d="M364.389,1136.905v-.248h.647v2.582h-.647v-.291a1.083,1.083,0,0,1-.841.361,1.366,1.366,0,0,1,.049-2.728A1.067,1.067,0,0,1,364.389,1136.905Zm-1.369,1.051a.7.7,0,0,0,.733.765.832.832,0,0,0,.561-.188v-1.159a.836.836,0,0,0-.561-.178A.7.7,0,0,0,363.02,1137.957Z" transform="translate(-355.618 -1135.331)" fill="#97a0a9"/>
        <path id="Path_60" data-name="Path 60" d="M387.363,1133.528h-.189v1.11h-.722v-3.908h.722V1133h.21l.744-.943h.841l-1.024,1.213,1.1,1.369H388.2Z" transform="translate(-374.618 -1130.73)" fill="#97a0a9"/>
        <path id="Path_61" data-name="Path 61" d="M410,1138.1H408.11a.762.762,0,0,0,.873.663,1.937,1.937,0,0,0,.825-.189l.092.523a2.267,2.267,0,0,1-1,.216,1.347,1.347,0,0,1-1.515-1.369,1.282,1.282,0,0,1,1.358-1.359,1.182,1.182,0,0,1,1.272,1.256A1.979,1.979,0,0,1,410,1138.1Zm-.663-.453a.544.544,0,0,0-.609-.55.585.585,0,0,0-.62.55Z" transform="translate(-391.079 -1135.331)" fill="#97a0a9"/>
        <path id="Path_62" data-name="Path 62" d="M445.26,1132.677h-1.272v3.013h-.766v-3.013h-1.277v-.609h3.315Z" transform="translate(-418.25 -1131.782)" fill="#97a0a9"/>
        <path id="Path_63" data-name="Path 63" d="M467.135,1138.1h-1.892a.762.762,0,0,0,.873.663,1.934,1.934,0,0,0,.825-.189l.092.523a2.268,2.268,0,0,1-1,.216,1.347,1.347,0,0,1-1.515-1.369,1.282,1.282,0,0,1,1.358-1.359,1.181,1.181,0,0,1,1.272,1.256A1.942,1.942,0,0,1,467.135,1138.1Zm-.663-.453a.544.544,0,0,0-.609-.55.584.584,0,0,0-.62.55Z" transform="translate(-436.001 -1135.331)" fill="#97a0a9"/>
        <path id="Path_64" data-name="Path 64" d="M489.277,1136.792l-.113.545a1.235,1.235,0,0,0-.647-.172.745.745,0,0,0-.819.776.76.76,0,0,0,.83.792,1.273,1.273,0,0,0,.717-.221l.092.534a1.52,1.52,0,0,1-.916.264,1.367,1.367,0,1,1,.022-2.728A1.677,1.677,0,0,1,489.277,1136.792Z" transform="translate(-453.652 -1135.331)" fill="#97a0a9"/>
        <path id="Path_65" data-name="Path 65" d="M511.249,1133.086v1.552h-.722v-1.493a.491.491,0,0,0-.555-.555.9.9,0,0,0-.561.183v1.865h-.722v-3.908h.722v1.553a1.148,1.148,0,0,1,.809-.3A.98.98,0,0,1,511.249,1133.086Z" transform="translate(-470.728 -1130.73)" fill="#97a0a9"/>
        <path id="Path_66" data-name="Path 66" d="M534.535,1137.687v1.552h-.728v-1.493a.491.491,0,0,0-.555-.555.905.905,0,0,0-.561.183v1.865h-.722v-2.582h.647v.3a1.158,1.158,0,0,1,.884-.377A.984.984,0,0,1,534.535,1137.687Z" transform="translate(-489.033 -1135.331)" fill="#97a0a9"/>
        <path id="Path_67" data-name="Path 67" d="M556.013,1139.31a1.365,1.365,0,1,1,1.412-1.369A1.332,1.332,0,0,1,556.013,1139.31Zm0-2.135a.694.694,0,0,0-.706.766.71.71,0,1,0,1.412,0A.7.7,0,0,0,556.013,1137.175Z" transform="translate(-506.823 -1135.331)" fill="#97a0a9"/>
        <path id="Path_68" data-name="Path 68" d="M578.76,1130.73h.722v3.908h-.722Z" transform="translate(-525.823 -1130.73)" fill="#97a0a9"/>
        <path id="Path_69" data-name="Path 69" d="M594.48,1139.31a1.365,1.365,0,1,1,1.412-1.369A1.332,1.332,0,0,1,594.48,1139.31Zm0-2.135a.694.694,0,0,0-.706.766.71.71,0,1,0,1.413,0A.7.7,0,0,0,594.48,1137.175Z" transform="translate(-537.068 -1135.331)" fill="#97a0a9"/>
        <path id="Path_70" data-name="Path 70" d="M619.205,1136.652v2.318c0,.793-.512,1.256-1.4,1.256a2.425,2.425,0,0,1-1.186-.3l.172-.544a1.8,1.8,0,0,0,.987.286c.431,0,.755-.2.755-.631v-.226a.978.978,0,0,1-.814.377,1.211,1.211,0,0,1-1.272-1.272,1.256,1.256,0,0,1,1.321-1.332,1.153,1.153,0,0,1,.792.286v-.216Zm-.738,1.784v-1.089a.848.848,0,0,0-.566-.2.752.752,0,0,0-.006,1.5A.812.812,0,0,0,618.467,1138.436Z" transform="translate(-555.453 -1135.331)" fill="#97a0a9"/>
        <path id="Path_71" data-name="Path 71" d="M642.934,1136.935v2.34c0,.8-.5,1.229-1.391,1.229a2.184,2.184,0,0,1-1.159-.307l.167-.539a1.731,1.731,0,0,0,.949.286c.485,0,.755-.178.755-.588v-.167a1.11,1.11,0,0,1-.792.286.981.981,0,0,1-1.057-1.078v-1.461h.722v1.4c0,.4.189.561.544.561a.837.837,0,0,0,.534-.188v-1.768Z" transform="translate(-574.276 -1135.609)" fill="#97a0a9"/>
        <path id="Path_72" data-name="Path 72" d="M679.556,1135.69h-.787l-.852-2.545-.809,2.545h-.782l-1.159-3.622h.793l.787,2.668.852-2.668h.642l.884,2.722.744-2.722h.8Z" transform="translate(-601.625 -1131.782)" fill="#97a0a9"/>
        <path id="Path_73" data-name="Path 73" d="M710.286,1139.31a1.365,1.365,0,1,1,1.412-1.369A1.332,1.332,0,0,1,710.286,1139.31Zm0-2.135a.694.694,0,0,0-.706.766.71.71,0,1,0,1.412,0A.7.7,0,0,0,710.286,1137.175Z" transform="translate(-628.122 -1135.331)" fill="#97a0a9"/>
        <path id="Path_74" data-name="Path 74" d="M734.5,1136.607v.738a1.611,1.611,0,0,0-.949.21v1.7h-.722v-2.582h.722v.431A1.06,1.06,0,0,1,734.5,1136.607Z" transform="translate(-646.963 -1135.351)" fill="#97a0a9"/>
        <path id="Path_75" data-name="Path 75" d="M751.852,1133.528h-.189v1.11h-.722v-3.908h.722V1133h.21l.744-.943h.841l-1.024,1.213,1.1,1.369h-.846Z" transform="translate(-661.203 -1130.73)" fill="#97a0a9"/>
      </g>
    </g>
  </g>
</svg>
